Coordinates
version=1
nRows=17
nColumns=36
inDegrees=yes

Units are S.I. units (second, meters, Newtons, ...)
If the header above contains a line with 'inDegrees', this indicates whether rotational values are in degrees (yes) or radians (no).

endheader
time	pelvis_tilt	pelvis_list	pelvis_rotation	pelvis_tx	pelvis_ty	pelvis_tz	hip_flexion_r	hip_adduction_r	hip_rotation_r	knee_angle_r	knee_angle_r_beta	ankle_angle_r	subtalar_angle_r	mtp_angle_r	hip_flexion_l	hip_adduction_l	hip_rotation_l	knee_angle_l	knee_angle_l_beta	ankle_angle_l	subtalar_angle_l	mtp_angle_l	lumbar_extension	lumbar_bending	lumbar_rotation	arm_flex_r	arm_add_r	arm_rot_r	elbow_flex_r	pro_sup_r	arm_flex_l	arm_add_l	arm_rot_l	elbow_flex_l	pro_sup_l
     14.96666670	     -0.94069078	      1.37621947	    179.84207553	      0.68259806	      1.11787486	      0.69679298	      2.26578657	      3.05226731	      3.08880617	     13.67932413	      0.23874925	     -1.07892649	    -10.11829208	     -7.49999987	     26.06384365	     -5.63727234	     -3.49694562	     56.68422593	      0.98932638	     -3.09056889	     -9.68203549	     -7.49999987	    -15.74779813	      0.82086418	      5.70553629	     16.52560557	    -16.07409118	      3.72754005	     27.09358286	     99.41809683	     14.57677542	     -8.49746020	     -2.05359623	     15.45431938	    104.43854138
     14.98333330	     -0.96473643	      1.51104968	    180.00195486	      0.68582345	      1.12036342	      0.69916370	      1.21840255	      3.28003627	      3.01525182	     13.32902552	      0.23263538	     -0.64128263	    -10.24941665	     -7.49999987	     25.88199325	     -5.65532167	     -3.48898863	     51.99798115	      0.90753598	     -3.25047739	    -10.08925549	     -7.49999987	    -15.78537203	      0.91666742	      5.68759904	     17.00153601	    -16.65876108	      4.52168410	     28.50964922	     97.55531051	     13.86083123	     -8.33683572	     -0.64023333	     14.27720199	    103.04092748
     15.00000000	     -0.98791463	      1.72199568	    180.18230061	      0.68916566	      1.12025962	      0.70140413	      0.16803613	      3.55788399	      3.06493219	     12.96032931	      0.22620042	     -0.25364371	    -10.49113878	     -7.49999987	     25.44820254	     -5.71316608	     -3.45163215	     46.76526984	      0.81620793	     -3.77005398	    -10.49002371	     -7.49999987	    -15.85246966	      1.11469169	      5.83188893	     17.11695816	    -17.40513094	      4.89533258	     30.38881337	     96.43169755	     13.36587413	     -8.11890660	      1.22116529	     13.29958450	    102.90359748
     15.01666670	     -1.01751647	      1.99936066	    180.27410172	      0.69106680	      1.11765239	      0.70256098	     -0.87805663	      3.85842423	      3.11124339	     12.63317223	      0.22049045	      0.29471657	    -10.48539297	     -7.49999987	     24.79500448	     -5.81820614	     -3.46671396	     41.06644311	      0.71674464	     -4.56926129	    -10.67882714	     -7.49999987	    -15.86568082	      1.39119371	      5.96455828	     17.22075399	    -18.09216914	      5.15355447	     31.99853921	     95.69203185	     12.86969087	     -7.78997075	      2.10878571	     12.54986786	    102.78887617
     15.03333330	     -1.06611594	      2.45570993	    180.50266382	      0.69141269	      1.11220478	      0.70338749	     -2.01903078	      4.31647305	      2.88286894	     12.26644392	      0.21408983	      0.83106447	    -10.29914984	     -7.49999987	     24.07845836	     -5.98876558	     -3.27564125	     35.10160902	      0.61263865	     -5.40802822	    -10.33973556	     -7.49999987	    -15.81651600	      1.90201986	      5.78288662	     17.30998219	    -18.67796223	      5.29129609	     33.56472693	     95.75934785	     12.21587702	     -7.51289934	      2.58483503	     11.97788900	    103.00202412
     15.05000000	     -1.09506767	      2.95673671	    180.74104570	      0.69019559	      1.10787076	      0.70498828	     -3.12273741	      4.79359042	      2.54428676	     12.06329907	      0.21054429	      1.47188965	     -9.86415501	     -7.49999987	     23.22586027	     -6.10864349	     -2.99148688	     28.74026333	      0.50161222	     -6.31941604	     -9.47213319	     -7.49999987	    -15.63751727	      2.38079495	      5.89542204	     16.76145812	    -19.37008227	      4.91193420	     35.49484200	     95.81892272	     11.86337402	     -7.17093692	      3.30646742	     10.91573218	    103.83273555
     15.06666670	     -1.18013473	      3.53755068	    181.01568818	      0.68826988	      1.10588445	      0.70768576	     -4.32454833	      5.31965849	      2.09879269	     11.92743347	      0.20817299	      2.21567214	     -9.20079038	     -7.49999987	     22.15776158	     -6.19750426	     -2.41890063	     22.12319383	      0.38612257	     -7.34820321	     -8.12237929	     -7.49999987	    -15.42364422	      2.93112183	      5.95878335	     16.13224624	    -20.04109643	      4.65177670	     37.03616124	     95.23067466	     11.51105033	     -6.81248048	      4.10719509	      9.72088348	    104.03742298
     15.08333330	     -1.32233267	      4.22771774	    181.15016618	      0.68731914	      1.10389114	      0.71039789	     -5.52075710	      5.90418461	      1.61029441	     12.04614256	      0.21024485	      3.18709193	     -8.27800659	     -7.49999987	     20.99935181	     -6.42980816	     -1.63093035	     15.91251923	      0.27772585	     -8.38175572	     -6.66552603	     -7.49999987	    -15.22397344	      3.62561000	      5.85712198	     15.76070812	    -20.59589606	      4.52313851	     38.14555627	     95.30518273	     10.88415036	     -6.50634736	      4.04956511	      8.90224611	    104.70422101
     15.10000000	     -1.59618212	      4.98193539	    181.10753453	      0.68795970	      1.10121743	      0.71246755	     -6.76823103	      6.51198730	      1.22038922	     12.41802377	      0.21673540	      4.49889976	     -7.29035713	     -7.49999987	     19.98914523	     -6.87214049	     -0.76707576	     11.14931679	      0.19459229	     -9.16345861	     -5.57879678	     -7.49999987	    -15.17879885	      4.35526749	      5.82610667	     15.58136572	    -21.24593375	      4.98108539	     38.98089235	     95.03864919	     10.34859864	     -6.20643825	      4.16403915	      8.11827724	    104.56730693
     15.11666670	     -1.99388824	      5.61210599	    180.96039861	      0.68943339	      1.09869988	      0.71352047	     -8.06128142	      6.99203625	      1.17593468	     12.97437794	      0.22644561	      5.91818642	     -6.68622176	     -7.49999987	     19.30323380	     -7.34867602	      0.01549604	      8.40412602	      0.14667967	     -9.46426064	     -5.08298191	     -7.49999987	    -15.36325966	      4.88094563	      5.77801694	     15.55669998	    -21.71401223	      5.33471543	     39.63945733	     95.02861302	      9.89854998	     -6.04095114	      4.12394297	      7.70732045	    104.48995856
     15.13333330	     -2.45453518	      5.98995050	    180.78673370	      0.69121101	      1.09702550	      0.71386282	     -9.26682977	      7.19596238	      1.20735040	     13.76933944	      0.24032031	      7.38645935	     -6.17084236	     -7.49999987	     18.82706970	     -7.65631455	      0.80769654	      7.34550520	      0.12820325	     -9.40263965	     -5.15521954	     -7.49999987	    -15.80215820	      5.02826435	      5.86223515	     15.51472379	    -22.16581137	      5.78240109	     40.22047951	     94.94616716	      9.81020898	     -5.95090490	      4.11673656	      7.31205148	    104.38276061
     15.15000000	     -2.74985869	      6.20573671	    180.66823065	      0.69257540	      1.09470376	      0.71485066	    -10.04214587	      7.26087921	      1.39665901	     14.99303840	      0.26167788	      8.38333470	     -6.37476567	     -7.49999987	     18.68836509	     -7.81478384	      1.57321192	      7.55567075	      0.13187133	     -9.05841615	     -5.26542289	     -7.49999987	    -16.04010796	      4.95647665	      5.94878570	     15.46432840	    -22.29973499	      5.90472941	     40.27943207	     94.93570487	      9.87801551	     -5.97582136	      4.13514076	      7.21120228	    104.40406643
     15.16666670	     -3.32436884	      6.21300901	    180.49202240	      0.69103562	      1.09060127	      0.71849975	    -10.77279951	      6.95428617	      1.19899006	     16.95361898	      0.29589647	      9.31213929	     -5.84072611	     -7.49999987	     18.10192636	     -7.69855586	      2.43383033	      8.24267925	      0.14386189	     -9.38854574	     -6.29671195	     -7.49999987	    -16.69362619	      4.64892597	      6.28514056	     15.26812951	    -22.68840432	      6.58200307	     40.49153656	     94.70284738	     10.29107458	     -5.89833143	      4.37311292	      6.91131906	    104.32669714
     15.18333330	     -3.56565159	      6.11704685	    180.31025825	      0.68481799	      1.08154604	      0.72492480	    -10.66065817	      6.45179505	      1.03050855	     20.15163488	      0.35171238	      9.63698581	     -6.22976614	     -7.49999987	     17.80520950	     -7.36182413	      3.12661015	      9.35700996	      0.16331063	     -9.85606435	     -6.98205026	     -7.49999987	    -16.80275439	      4.36048177	      6.54272335	     15.00193621	    -22.96256136	      7.15062514	     40.13029331	     94.53574421	     10.48215251	     -5.83793908	      5.40456593	      6.76266540	    104.81934508
     15.20000000	     -3.79908269	      5.71064143	    180.12601903	      0.67607896	      1.07144552	      0.73225971	     -9.86517219	      5.50055042	      0.81206948	     25.09182101	      0.43793489	      9.43549250	     -7.31171735	     -7.49999987	     17.39009829	     -6.58002452	      3.75350034	     10.76998213	      0.18797165	    -10.64763902	     -7.96966400	     -7.49999987	    -16.73705959	      3.81553166	      6.90942396	     14.16705902	    -23.17052009	      6.93335383	     39.92894182	     93.19979390	     10.55163050	     -5.73429253	      6.45645089	      6.84381176	    104.99090095
     15.21666670	     -3.89034501	      4.89110567	    179.97853717	      0.66961364	      1.06278662	      0.73780441	     -8.14988525	      4.05372436	      0.51970815	     31.78880073	      0.55481924	      8.97609586	     -8.62016197	     -7.49999987	     17.15542699	     -5.30474863	      4.28814017	     12.67773699	      0.22126825	    -11.24003766	     -9.22908194	     -7.49999987	    -16.36831553	      2.87878322	      6.90400893	     13.37150147	    -23.13335549	      6.83801354	     39.36652728	     91.95453965	     10.47668475	     -5.70898397	      6.79932173	      6.85870057	    103.83036474
     15.23333330	     -3.93272740	      3.70264862	    179.82438098	      0.66793002	      1.05710997	      0.74076528	     -5.80064047	      2.24016608	      0.31382762	     39.38195119	      0.68734471	      8.11154066	     -9.85909017	     -7.49999987	     17.03334423	     -3.69096355	      4.44407444	     14.93831544	      0.26072279	    -11.06115651	    -10.33303804	     -7.49999987	    -16.07383523	      1.49153439	      6.95496709	     12.28490235	    -22.95751582	      6.22605174	     39.12895331	     91.53567687	     10.67401726	     -5.98736469	      8.03873924	      7.01104133	    104.53834842
